<mxfile host="app.diagrams.net" modified="2024-07-09T08:40:48.055Z" agent="Mozilla/5.0 (Macintosh; Intel Mac OS X 10_15_7) AppleWebKit/537.36 (KHTML, like Gecko) Chrome/126.0.0.0 Safari/537.36 Edg/126.0.0.0" etag="YQtOyRWX_VjWzevC6jfx" version="24.6.2" type="github">
  <diagram name="Page-1" id="N7xHK8N1toNeXz8DujmT">
    <mxGraphModel dx="1365" dy="800" grid="1" gridSize="10" guides="1" tooltips="1" connect="1" arrows="1" fold="1" page="1" pageScale="1" pageWidth="1169" pageHeight="827" math="0" shadow="0">
      <root>
        <mxCell id="0" />
        <mxCell id="1" parent="0" />
        <mxCell id="E44fEDclXEfQBoyx3x5H-21" value="ReAct Chain" style="rounded=0;whiteSpace=wrap;html=1;fillColor=#FFFEF0;strokeColor=none;fontColor=#7EA6E0;verticalAlign=top;align=right;" vertex="1" parent="1">
          <mxGeometry x="170" y="30" width="710" height="350" as="geometry" />
        </mxCell>
        <mxCell id="E44fEDclXEfQBoyx3x5H-4" value="&lt;font style=&quot;font-size: 16px;&quot;&gt;RAG&lt;/font&gt;" style="rounded=0;whiteSpace=wrap;html=1;fillColor=#EFF4FC;strokeColor=none;horizontal=1;verticalAlign=top;align=right;fontColor=#7EA6E0;" vertex="1" parent="1">
          <mxGeometry x="190" y="50" width="200" height="310" as="geometry" />
        </mxCell>
        <mxCell id="E44fEDclXEfQBoyx3x5H-1" value="get_module_definition" style="html=1;verticalLabelPosition=bottom;align=center;labelBackgroundColor=none;verticalAlign=top;strokeWidth=2;strokeColor=#6c8ebf;shadow=0;dashed=0;shape=mxgraph.ios7.icons.tools;pointerEvents=1;fillColor=#dae8fc;fontColor=#7EA6E0;" vertex="1" parent="1">
          <mxGeometry x="250" y="260" width="60" height="60" as="geometry" />
        </mxCell>
        <mxCell id="E44fEDclXEfQBoyx3x5H-2" value="" style="shape=image;html=1;verticalAlign=top;verticalLabelPosition=bottom;labelBackgroundColor=#ffffff;imageAspect=0;aspect=fixed;image=https://cdn1.iconfinder.com/data/icons/unicons-line-vol-1/24/brain-128.png;strokeWidth=0;" vertex="1" parent="1">
          <mxGeometry x="230" y="80" width="100" height="100" as="geometry" />
        </mxCell>
        <mxCell id="E44fEDclXEfQBoyx3x5H-5" value="" style="html=1;verticalLabelPosition=bottom;align=center;labelBackgroundColor=#ffffff;verticalAlign=top;strokeWidth=2;strokeColor=#0080F0;shadow=0;dashed=0;shape=mxgraph.ios7.icons.user;" vertex="1" parent="1">
          <mxGeometry x="50" y="90" width="80" height="80" as="geometry" />
        </mxCell>
        <mxCell id="E44fEDclXEfQBoyx3x5H-6" value="" style="endArrow=classic;html=1;rounded=0;exitX=1.017;exitY=0.479;exitDx=0;exitDy=0;exitPerimeter=0;fillColor=#dae8fc;strokeColor=#6c8ebf;" edge="1" parent="1" source="E44fEDclXEfQBoyx3x5H-5" target="E44fEDclXEfQBoyx3x5H-2">
          <mxGeometry width="50" height="50" relative="1" as="geometry">
            <mxPoint x="560" y="370" as="sourcePoint" />
            <mxPoint x="610" y="320" as="targetPoint" />
          </mxGeometry>
        </mxCell>
        <mxCell id="E44fEDclXEfQBoyx3x5H-7" value="" style="endArrow=classic;html=1;rounded=0;exitX=1;exitY=0.5;exitDx=0;exitDy=0;entryX=0;entryY=0.5;entryDx=0;entryDy=0;strokeColor=#7EA6E0;" edge="1" parent="1" source="E44fEDclXEfQBoyx3x5H-2" target="E44fEDclXEfQBoyx3x5H-8">
          <mxGeometry width="50" height="50" relative="1" as="geometry">
            <mxPoint x="480" y="150" as="sourcePoint" />
            <mxPoint x="490" y="130" as="targetPoint" />
          </mxGeometry>
        </mxCell>
        <mxCell id="E44fEDclXEfQBoyx3x5H-8" value="" style="shape=image;html=1;verticalAlign=top;verticalLabelPosition=bottom;labelBackgroundColor=#ffffff;imageAspect=0;aspect=fixed;image=https://cdn1.iconfinder.com/data/icons/unicons-line-vol-1/24/brain-128.png;strokeWidth=0;" vertex="1" parent="1">
          <mxGeometry x="470" y="80" width="100" height="100" as="geometry" />
        </mxCell>
        <mxCell id="E44fEDclXEfQBoyx3x5H-9" value="update_twin" style="html=1;verticalLabelPosition=bottom;align=center;labelBackgroundColor=none;verticalAlign=top;strokeWidth=2;strokeColor=#6c8ebf;shadow=0;dashed=0;shape=mxgraph.ios7.icons.tools;pointerEvents=1;fillColor=#dae8fc;fontColor=#7EA6E0;" vertex="1" parent="1">
          <mxGeometry x="490" y="260" width="60" height="60" as="geometry" />
        </mxCell>
        <mxCell id="E44fEDclXEfQBoyx3x5H-10" value="Azure&lt;br&gt;Digital Twin Service" style="image;aspect=fixed;html=1;points=[];align=center;fontSize=12;image=img/lib/azure2/internet_of_things/Digital_Twins.svg;fontColor=#7EA6E0;" vertex="1" parent="1">
          <mxGeometry x="620" y="390" width="68" height="69" as="geometry" />
        </mxCell>
        <mxCell id="E44fEDclXEfQBoyx3x5H-11" value="" style="endArrow=classic;html=1;rounded=0;exitX=0.5;exitY=1;exitDx=0;exitDy=0;entryX=0.489;entryY=-0.05;entryDx=0;entryDy=0;entryPerimeter=0;strokeColor=#7EA6E0;" edge="1" parent="1" source="E44fEDclXEfQBoyx3x5H-8" target="E44fEDclXEfQBoyx3x5H-9">
          <mxGeometry width="50" height="50" relative="1" as="geometry">
            <mxPoint x="490" y="300" as="sourcePoint" />
            <mxPoint x="540" y="250" as="targetPoint" />
          </mxGeometry>
        </mxCell>
        <mxCell id="E44fEDclXEfQBoyx3x5H-12" value="" style="endArrow=classic;html=1;rounded=0;exitX=0.5;exitY=1;exitDx=0;exitDy=0;entryX=0.494;entryY=-0.006;entryDx=0;entryDy=0;entryPerimeter=0;strokeColor=#7EA6E0;" edge="1" parent="1" source="E44fEDclXEfQBoyx3x5H-2" target="E44fEDclXEfQBoyx3x5H-1">
          <mxGeometry width="50" height="50" relative="1" as="geometry">
            <mxPoint x="490" y="300" as="sourcePoint" />
            <mxPoint x="540" y="250" as="targetPoint" />
          </mxGeometry>
        </mxCell>
        <mxCell id="E44fEDclXEfQBoyx3x5H-13" value="" style="endArrow=classic;html=1;rounded=0;entryX=-0.005;entryY=0.483;entryDx=0;entryDy=0;entryPerimeter=0;edgeStyle=orthogonalEdgeStyle;strokeColor=#7EA6E0;" edge="1" parent="1" target="E44fEDclXEfQBoyx3x5H-10">
          <mxGeometry width="50" height="50" relative="1" as="geometry">
            <mxPoint x="520" y="340" as="sourcePoint" />
            <mxPoint x="540" y="330" as="targetPoint" />
            <Array as="points">
              <mxPoint x="520" y="423" />
              <mxPoint x="620" y="423" />
            </Array>
          </mxGeometry>
        </mxCell>
        <mxCell id="E44fEDclXEfQBoyx3x5H-14" value="" style="shape=image;html=1;verticalAlign=top;verticalLabelPosition=bottom;labelBackgroundColor=#ffffff;imageAspect=0;aspect=fixed;image=https://cdn1.iconfinder.com/data/icons/unicons-line-vol-1/24/brain-128.png;strokeWidth=0;" vertex="1" parent="1">
          <mxGeometry x="730" y="80" width="100" height="100" as="geometry" />
        </mxCell>
        <mxCell id="E44fEDclXEfQBoyx3x5H-15" value="" style="endArrow=classic;html=1;rounded=0;entryX=0;entryY=0.5;entryDx=0;entryDy=0;exitX=1;exitY=0.5;exitDx=0;exitDy=0;strokeColor=#7EA6E0;" edge="1" parent="1" source="E44fEDclXEfQBoyx3x5H-8" target="E44fEDclXEfQBoyx3x5H-14">
          <mxGeometry width="50" height="50" relative="1" as="geometry">
            <mxPoint x="490" y="220" as="sourcePoint" />
            <mxPoint x="540" y="170" as="targetPoint" />
          </mxGeometry>
        </mxCell>
        <mxCell id="E44fEDclXEfQBoyx3x5H-16" value="update_relationship" style="html=1;verticalLabelPosition=bottom;align=center;labelBackgroundColor=none;verticalAlign=top;strokeWidth=2;strokeColor=#6c8ebf;shadow=0;dashed=0;shape=mxgraph.ios7.icons.tools;pointerEvents=1;fillColor=#dae8fc;fontColor=#7EA6E0;" vertex="1" parent="1">
          <mxGeometry x="750" y="260" width="60" height="60" as="geometry" />
        </mxCell>
        <mxCell id="E44fEDclXEfQBoyx3x5H-17" value="" style="endArrow=classic;html=1;rounded=0;exitX=0.5;exitY=1;exitDx=0;exitDy=0;entryX=0.494;entryY=-0.056;entryDx=0;entryDy=0;entryPerimeter=0;strokeColor=#7EA6E0;" edge="1" parent="1" source="E44fEDclXEfQBoyx3x5H-14" target="E44fEDclXEfQBoyx3x5H-16">
          <mxGeometry width="50" height="50" relative="1" as="geometry">
            <mxPoint x="700" y="260" as="sourcePoint" />
            <mxPoint x="750" y="210" as="targetPoint" />
          </mxGeometry>
        </mxCell>
        <mxCell id="E44fEDclXEfQBoyx3x5H-18" value="" style="endArrow=classic;html=1;rounded=0;entryX=1.02;entryY=0.464;entryDx=0;entryDy=0;entryPerimeter=0;edgeStyle=orthogonalEdgeStyle;strokeColor=#7EA6E0;" edge="1" parent="1" target="E44fEDclXEfQBoyx3x5H-10">
          <mxGeometry width="50" height="50" relative="1" as="geometry">
            <mxPoint x="780" y="340" as="sourcePoint" />
            <mxPoint x="710" y="330" as="targetPoint" />
            <Array as="points">
              <mxPoint x="780" y="422" />
            </Array>
          </mxGeometry>
        </mxCell>
        <mxCell id="E44fEDclXEfQBoyx3x5H-19" value="" style="sketch=0;html=1;aspect=fixed;strokeColor=none;shadow=0;fillColor=#3B8DF1;verticalAlign=top;labelPosition=center;verticalLabelPosition=bottom;shape=mxgraph.gcp2.social_media_time" vertex="1" parent="1">
          <mxGeometry x="940" y="80" width="97" height="100" as="geometry" />
        </mxCell>
        <mxCell id="E44fEDclXEfQBoyx3x5H-20" value="" style="endArrow=classic;html=1;rounded=0;exitX=1;exitY=0.5;exitDx=0;exitDy=0;strokeColor=#7EA6E0;" edge="1" parent="1" source="E44fEDclXEfQBoyx3x5H-14" target="E44fEDclXEfQBoyx3x5H-19">
          <mxGeometry width="50" height="50" relative="1" as="geometry">
            <mxPoint x="870" y="220" as="sourcePoint" />
            <mxPoint x="920" y="170" as="targetPoint" />
          </mxGeometry>
        </mxCell>
        <mxCell id="E44fEDclXEfQBoyx3x5H-22" value="User describes topolgy to create" style="text;html=1;align=left;verticalAlign=middle;whiteSpace=wrap;rounded=0;fillColor=#dae8fc;strokeColor=#FFFFFF;fontColor=#7EA6E0;" vertex="1" parent="1">
          <mxGeometry x="35" y="190" width="110" height="30" as="geometry" />
        </mxCell>
        <mxCell id="E44fEDclXEfQBoyx3x5H-24" value="LLM: gets module definition to create twin&amp;nbsp;" style="text;html=1;align=left;verticalAlign=middle;whiteSpace=wrap;rounded=0;strokeColor=#FFFFFF;fillColor=#dae8fc;fontColor=#7EA6E0;" vertex="1" parent="1">
          <mxGeometry x="290" y="200" width="110" height="50" as="geometry" />
        </mxCell>
        <mxCell id="E44fEDclXEfQBoyx3x5H-25" value="LLM: uses tool to create digital twin" style="text;html=1;align=left;verticalAlign=middle;whiteSpace=wrap;rounded=0;strokeColor=#FFFFFF;fillColor=#dae8fc;fontColor=#7EA6E0;" vertex="1" parent="1">
          <mxGeometry x="530" y="210" width="110" height="30" as="geometry" />
        </mxCell>
        <mxCell id="E44fEDclXEfQBoyx3x5H-26" value="LLM: uses tool to create relationship between twins" style="text;html=1;align=left;verticalAlign=middle;whiteSpace=wrap;rounded=0;strokeColor=#FFFFFF;fillColor=#dae8fc;fontColor=#7EA6E0;" vertex="1" parent="1">
          <mxGeometry x="790" y="200" width="110" height="50" as="geometry" />
        </mxCell>
      </root>
    </mxGraphModel>
  </diagram>
</mxfile>
